# xmcd
#
# Track frame offsets:
#	150
#	30225
#	57148
#	84215
#	113612
#	139635
#	165733
#
# Disc length: 2552 seconds
#
# Revision: 1
# Processed by: cddbd v1.5.2PL0 Copyright (c) Steve Scherf et al.
# Submitted via: audiograbber 1.83.01
#
DISCID=4509f607
DTITLE=Eagles - Take It Easy - Live In The USA
DYEAR=1900
DGENRE=Rock
TTITLE0=Hotel California
TTITLE1=Life in the fast lane
TTITLE2=The heart of the matter
TTITLE3=Sunset grill
TTITLE4=Dirty laundry
TTITLE5=All she wants to do is dance
TTITLE6=Desperado
EXTD=
EXTT0=
EXTT1=
EXTT2=
EXTT3=
EXTT4=
EXTT5=
EXTT6=
PLAYORDER=
